<mxfile host="app.diagrams.net" agent="Mozilla/5.0 (Windows NT 10.0; Win64; x64) AppleWebKit/537.36 (KHTML, like Gecko) Chrome/131.0.0.0 Safari/537.36" version="26.0.5">
  <diagram name="第 1 页" id="XqIgpjNL912tUWsm86NY">
    <mxGraphModel dx="1728" dy="915" grid="1" gridSize="10" guides="1" tooltips="1" connect="1" arrows="1" fold="1" page="1" pageScale="1" pageWidth="1169" pageHeight="827" math="0" shadow="0">
      <root>
        <mxCell id="0" />
        <mxCell id="1" parent="0" />
        <mxCell id="jOU-Sw_w10BAUPFyjZc6-11" style="edgeStyle=orthogonalEdgeStyle;rounded=0;orthogonalLoop=1;jettySize=auto;html=1;exitX=0.5;exitY=0.5;exitDx=0;exitDy=0;exitPerimeter=0;" edge="1" parent="1" source="jOU-Sw_w10BAUPFyjZc6-1" target="jOU-Sw_w10BAUPFyjZc6-2">
          <mxGeometry relative="1" as="geometry" />
        </mxCell>
        <mxCell id="jOU-Sw_w10BAUPFyjZc6-1" value="Actor" style="shape=umlActor;verticalLabelPosition=bottom;verticalAlign=top;html=1;outlineConnect=0;" vertex="1" parent="1">
          <mxGeometry x="25" y="379" width="30" height="60" as="geometry" />
        </mxCell>
        <mxCell id="jOU-Sw_w10BAUPFyjZc6-4" style="edgeStyle=orthogonalEdgeStyle;rounded=0;orthogonalLoop=1;jettySize=auto;html=1;exitX=1;exitY=0.5;exitDx=0;exitDy=0;entryX=0;entryY=0.5;entryDx=0;entryDy=0;" edge="1" parent="1" source="jOU-Sw_w10BAUPFyjZc6-2" target="jOU-Sw_w10BAUPFyjZc6-16">
          <mxGeometry relative="1" as="geometry">
            <mxPoint x="295" y="409" as="targetPoint" />
          </mxGeometry>
        </mxCell>
        <mxCell id="jOU-Sw_w10BAUPFyjZc6-2" value="开始节点" style="rounded=1;whiteSpace=wrap;html=1;" vertex="1" parent="1">
          <mxGeometry x="85" y="379" width="120" height="60" as="geometry" />
        </mxCell>
        <mxCell id="jOU-Sw_w10BAUPFyjZc6-6" style="edgeStyle=orthogonalEdgeStyle;rounded=0;orthogonalLoop=1;jettySize=auto;html=1;exitX=1;exitY=0.5;exitDx=0;exitDy=0;entryX=0;entryY=0.5;entryDx=0;entryDy=0;" edge="1" parent="1" source="jOU-Sw_w10BAUPFyjZc6-16" target="jOU-Sw_w10BAUPFyjZc6-15">
          <mxGeometry relative="1" as="geometry">
            <mxPoint x="355" y="379" as="sourcePoint" />
            <mxPoint x="475" y="319" as="targetPoint" />
          </mxGeometry>
        </mxCell>
        <mxCell id="jOU-Sw_w10BAUPFyjZc6-19" value="开始互动" style="edgeLabel;html=1;align=center;verticalAlign=middle;resizable=0;points=[];" vertex="1" connectable="0" parent="jOU-Sw_w10BAUPFyjZc6-6">
          <mxGeometry x="-0.0051" y="-1" relative="1" as="geometry">
            <mxPoint as="offset" />
          </mxGeometry>
        </mxCell>
        <mxCell id="jOU-Sw_w10BAUPFyjZc6-13" style="edgeStyle=orthogonalEdgeStyle;rounded=0;orthogonalLoop=1;jettySize=auto;html=1;exitX=0.5;exitY=0;exitDx=0;exitDy=0;entryX=0.494;entryY=0.938;entryDx=0;entryDy=0;entryPerimeter=0;" edge="1" parent="1" source="jOU-Sw_w10BAUPFyjZc6-15" target="jOU-Sw_w10BAUPFyjZc6-55">
          <mxGeometry relative="1" as="geometry">
            <mxPoint x="535" y="289" as="sourcePoint" />
            <mxPoint x="175" y="189" as="targetPoint" />
          </mxGeometry>
        </mxCell>
        <mxCell id="jOU-Sw_w10BAUPFyjZc6-14" value="结束节点" style="rounded=1;whiteSpace=wrap;html=1;" vertex="1" parent="1">
          <mxGeometry x="1005" y="379" width="120" height="60" as="geometry" />
        </mxCell>
        <mxCell id="jOU-Sw_w10BAUPFyjZc6-26" style="edgeStyle=orthogonalEdgeStyle;rounded=0;orthogonalLoop=1;jettySize=auto;html=1;exitX=1;exitY=0.5;exitDx=0;exitDy=0;" edge="1" parent="1" source="jOU-Sw_w10BAUPFyjZc6-15" target="jOU-Sw_w10BAUPFyjZc6-14">
          <mxGeometry relative="1" as="geometry">
            <mxPoint x="655" y="470" as="targetPoint" />
          </mxGeometry>
        </mxCell>
        <mxCell id="jOU-Sw_w10BAUPFyjZc6-28" value="主听用户拒绝" style="edgeLabel;html=1;align=center;verticalAlign=middle;resizable=0;points=[];" vertex="1" connectable="0" parent="jOU-Sw_w10BAUPFyjZc6-26">
          <mxGeometry x="0.106" y="-3" relative="1" as="geometry">
            <mxPoint as="offset" />
          </mxGeometry>
        </mxCell>
        <mxCell id="jOU-Sw_w10BAUPFyjZc6-15" value="分支节点" style="rhombus;whiteSpace=wrap;html=1;" vertex="1" parent="1">
          <mxGeometry x="497" y="369" width="130" height="80" as="geometry" />
        </mxCell>
        <mxCell id="jOU-Sw_w10BAUPFyjZc6-18" style="edgeStyle=orthogonalEdgeStyle;rounded=0;orthogonalLoop=1;jettySize=auto;html=1;exitX=0.5;exitY=1;exitDx=0;exitDy=0;entryX=1;entryY=0.5;entryDx=0;entryDy=0;" edge="1" parent="1" source="jOU-Sw_w10BAUPFyjZc6-16" target="jOU-Sw_w10BAUPFyjZc6-17">
          <mxGeometry relative="1" as="geometry" />
        </mxCell>
        <mxCell id="jOU-Sw_w10BAUPFyjZc6-20" value="结束互动" style="edgeLabel;html=1;align=center;verticalAlign=middle;resizable=0;points=[];" vertex="1" connectable="0" parent="jOU-Sw_w10BAUPFyjZc6-18">
          <mxGeometry x="-0.12" y="-3" relative="1" as="geometry">
            <mxPoint as="offset" />
          </mxGeometry>
        </mxCell>
        <mxCell id="jOU-Sw_w10BAUPFyjZc6-16" value="分支节点" style="rhombus;whiteSpace=wrap;html=1;" vertex="1" parent="1">
          <mxGeometry x="235" y="369" width="130" height="80" as="geometry" />
        </mxCell>
        <mxCell id="jOU-Sw_w10BAUPFyjZc6-43" style="edgeStyle=orthogonalEdgeStyle;rounded=0;orthogonalLoop=1;jettySize=auto;html=1;exitX=0.5;exitY=1;exitDx=0;exitDy=0;entryX=0.5;entryY=1;entryDx=0;entryDy=0;" edge="1" parent="1" source="jOU-Sw_w10BAUPFyjZc6-17" target="jOU-Sw_w10BAUPFyjZc6-14">
          <mxGeometry relative="1" as="geometry">
            <mxPoint x="635" y="560" as="targetPoint" />
          </mxGeometry>
        </mxCell>
        <mxCell id="jOU-Sw_w10BAUPFyjZc6-49" value="播放完成" style="edgeLabel;html=1;align=center;verticalAlign=middle;resizable=0;points=[];" vertex="1" connectable="0" parent="jOU-Sw_w10BAUPFyjZc6-43">
          <mxGeometry x="-0.8725" y="-1" relative="1" as="geometry">
            <mxPoint as="offset" />
          </mxGeometry>
        </mxCell>
        <mxCell id="jOU-Sw_w10BAUPFyjZc6-45" style="edgeStyle=orthogonalEdgeStyle;rounded=0;orthogonalLoop=1;jettySize=auto;html=1;exitX=0;exitY=0.5;exitDx=0;exitDy=0;" edge="1" parent="1" source="jOU-Sw_w10BAUPFyjZc6-17" target="jOU-Sw_w10BAUPFyjZc6-44">
          <mxGeometry relative="1" as="geometry" />
        </mxCell>
        <mxCell id="jOU-Sw_w10BAUPFyjZc6-50" value="播放未完成" style="edgeLabel;html=1;align=center;verticalAlign=middle;resizable=0;points=[];" vertex="1" connectable="0" parent="jOU-Sw_w10BAUPFyjZc6-45">
          <mxGeometry x="-0.0444" y="1" relative="1" as="geometry">
            <mxPoint as="offset" />
          </mxGeometry>
        </mxCell>
        <mxCell id="jOU-Sw_w10BAUPFyjZc6-17" value="分支节点" style="rhombus;whiteSpace=wrap;html=1;direction=west;" vertex="1" parent="1">
          <mxGeometry x="415" y="592" width="130" height="80" as="geometry" />
        </mxCell>
        <mxCell id="jOU-Sw_w10BAUPFyjZc6-37" style="edgeStyle=orthogonalEdgeStyle;rounded=0;orthogonalLoop=1;jettySize=auto;html=1;exitX=1;exitY=0;exitDx=0;exitDy=0;entryX=0;entryY=0.5;entryDx=0;entryDy=0;" edge="1" parent="1" source="jOU-Sw_w10BAUPFyjZc6-21" target="jOU-Sw_w10BAUPFyjZc6-65">
          <mxGeometry relative="1" as="geometry">
            <mxPoint x="945" y="250" as="targetPoint" />
          </mxGeometry>
        </mxCell>
        <mxCell id="jOU-Sw_w10BAUPFyjZc6-41" value="超时5s" style="edgeLabel;html=1;align=center;verticalAlign=middle;resizable=0;points=[];" vertex="1" connectable="0" parent="jOU-Sw_w10BAUPFyjZc6-37">
          <mxGeometry x="-0.6614" y="1" relative="1" as="geometry">
            <mxPoint as="offset" />
          </mxGeometry>
        </mxCell>
        <mxCell id="jOU-Sw_w10BAUPFyjZc6-38" style="edgeStyle=orthogonalEdgeStyle;rounded=0;orthogonalLoop=1;jettySize=auto;html=1;exitX=0.5;exitY=1;exitDx=0;exitDy=0;" edge="1" parent="1" source="jOU-Sw_w10BAUPFyjZc6-21" target="jOU-Sw_w10BAUPFyjZc6-66">
          <mxGeometry relative="1" as="geometry">
            <mxPoint x="955" y="330" as="targetPoint" />
          </mxGeometry>
        </mxCell>
        <mxCell id="jOU-Sw_w10BAUPFyjZc6-39" style="edgeStyle=orthogonalEdgeStyle;rounded=0;orthogonalLoop=1;jettySize=auto;html=1;entryX=0;entryY=0.5;entryDx=0;entryDy=0;exitX=0.5;exitY=0;exitDx=0;exitDy=0;" edge="1" parent="1" source="jOU-Sw_w10BAUPFyjZc6-21" target="jOU-Sw_w10BAUPFyjZc6-64">
          <mxGeometry relative="1" as="geometry">
            <mxPoint x="830" y="60" as="targetPoint" />
            <mxPoint x="770" y="190" as="sourcePoint" />
          </mxGeometry>
        </mxCell>
        <mxCell id="jOU-Sw_w10BAUPFyjZc6-40" value="超时10s" style="edgeLabel;html=1;align=center;verticalAlign=middle;resizable=0;points=[];" vertex="1" connectable="0" parent="jOU-Sw_w10BAUPFyjZc6-39">
          <mxGeometry x="-0.4506" y="1" relative="1" as="geometry">
            <mxPoint as="offset" />
          </mxGeometry>
        </mxCell>
        <mxCell id="jOU-Sw_w10BAUPFyjZc6-21" value="分支节点" style="rhombus;whiteSpace=wrap;html=1;" vertex="1" parent="1">
          <mxGeometry x="675" y="219" width="130" height="80" as="geometry" />
        </mxCell>
        <mxCell id="jOU-Sw_w10BAUPFyjZc6-47" style="edgeStyle=orthogonalEdgeStyle;rounded=0;orthogonalLoop=1;jettySize=auto;html=1;exitX=0;exitY=0.5;exitDx=0;exitDy=0;entryX=0.5;entryY=1;entryDx=0;entryDy=0;" edge="1" parent="1" source="jOU-Sw_w10BAUPFyjZc6-44" target="jOU-Sw_w10BAUPFyjZc6-14">
          <mxGeometry relative="1" as="geometry" />
        </mxCell>
        <mxCell id="jOU-Sw_w10BAUPFyjZc6-53" value="儿童" style="edgeLabel;html=1;align=center;verticalAlign=middle;resizable=0;points=[];" vertex="1" connectable="0" parent="jOU-Sw_w10BAUPFyjZc6-47">
          <mxGeometry x="-0.7785" y="-1" relative="1" as="geometry">
            <mxPoint as="offset" />
          </mxGeometry>
        </mxCell>
        <mxCell id="jOU-Sw_w10BAUPFyjZc6-70" style="edgeStyle=orthogonalEdgeStyle;rounded=0;orthogonalLoop=1;jettySize=auto;html=1;exitX=0.5;exitY=1;exitDx=0;exitDy=0;entryX=0.5;entryY=1;entryDx=0;entryDy=0;" edge="1" parent="1" source="jOU-Sw_w10BAUPFyjZc6-44" target="jOU-Sw_w10BAUPFyjZc6-14">
          <mxGeometry relative="1" as="geometry" />
        </mxCell>
        <mxCell id="jOU-Sw_w10BAUPFyjZc6-44" value="分支节点" style="rhombus;whiteSpace=wrap;html=1;direction=west;" vertex="1" parent="1">
          <mxGeometry x="675" y="592" width="130" height="80" as="geometry" />
        </mxCell>
        <mxCell id="jOU-Sw_w10BAUPFyjZc6-54" value="展品互动流程图" style="text;html=1;align=center;verticalAlign=middle;whiteSpace=wrap;rounded=0;" vertex="1" parent="1">
          <mxGeometry x="497" width="175" height="30" as="geometry" />
        </mxCell>
        <mxCell id="jOU-Sw_w10BAUPFyjZc6-71" style="edgeStyle=orthogonalEdgeStyle;rounded=0;orthogonalLoop=1;jettySize=auto;html=1;exitX=1;exitY=0.5;exitDx=0;exitDy=0;entryX=0;entryY=0.5;entryDx=0;entryDy=0;" edge="1" parent="1" source="jOU-Sw_w10BAUPFyjZc6-55" target="jOU-Sw_w10BAUPFyjZc6-60">
          <mxGeometry relative="1" as="geometry" />
        </mxCell>
        <mxCell id="jOU-Sw_w10BAUPFyjZc6-55" value="分支节点" style="rhombus;whiteSpace=wrap;html=1;" vertex="1" parent="1">
          <mxGeometry x="235" y="200" width="130" height="80" as="geometry" />
        </mxCell>
        <mxCell id="jOU-Sw_w10BAUPFyjZc6-57" style="edgeStyle=orthogonalEdgeStyle;rounded=0;orthogonalLoop=1;jettySize=auto;html=1;exitX=0.5;exitY=0;exitDx=0;exitDy=0;entryX=0;entryY=0.5;entryDx=0;entryDy=0;" edge="1" parent="1" source="jOU-Sw_w10BAUPFyjZc6-55" target="jOU-Sw_w10BAUPFyjZc6-59">
          <mxGeometry relative="1" as="geometry">
            <mxPoint x="372" y="150" as="targetPoint" />
          </mxGeometry>
        </mxCell>
        <mxCell id="jOU-Sw_w10BAUPFyjZc6-62" style="edgeStyle=orthogonalEdgeStyle;rounded=0;orthogonalLoop=1;jettySize=auto;html=1;exitX=1;exitY=0.5;exitDx=0;exitDy=0;entryX=0;entryY=0;entryDx=0;entryDy=0;" edge="1" parent="1" source="jOU-Sw_w10BAUPFyjZc6-59" target="jOU-Sw_w10BAUPFyjZc6-21">
          <mxGeometry relative="1" as="geometry">
            <mxPoint x="670" y="259" as="targetPoint" />
          </mxGeometry>
        </mxCell>
        <mxCell id="jOU-Sw_w10BAUPFyjZc6-59" value="消息节点" style="rounded=0;whiteSpace=wrap;html=1;" vertex="1" parent="1">
          <mxGeometry x="417" y="130" width="120" height="60" as="geometry" />
        </mxCell>
        <mxCell id="jOU-Sw_w10BAUPFyjZc6-63" style="edgeStyle=orthogonalEdgeStyle;rounded=0;orthogonalLoop=1;jettySize=auto;html=1;exitX=1;exitY=0.5;exitDx=0;exitDy=0;" edge="1" parent="1" source="jOU-Sw_w10BAUPFyjZc6-60" target="jOU-Sw_w10BAUPFyjZc6-21">
          <mxGeometry relative="1" as="geometry" />
        </mxCell>
        <mxCell id="jOU-Sw_w10BAUPFyjZc6-60" value="消息节点" style="rounded=0;whiteSpace=wrap;html=1;" vertex="1" parent="1">
          <mxGeometry x="417" y="210" width="120" height="60" as="geometry" />
        </mxCell>
        <mxCell id="jOU-Sw_w10BAUPFyjZc6-67" style="edgeStyle=orthogonalEdgeStyle;rounded=0;orthogonalLoop=1;jettySize=auto;html=1;exitX=1;exitY=0.5;exitDx=0;exitDy=0;entryX=1;entryY=0.5;entryDx=0;entryDy=0;" edge="1" parent="1" source="jOU-Sw_w10BAUPFyjZc6-64" target="jOU-Sw_w10BAUPFyjZc6-14">
          <mxGeometry relative="1" as="geometry" />
        </mxCell>
        <mxCell id="jOU-Sw_w10BAUPFyjZc6-64" value="消息节点" style="rounded=0;whiteSpace=wrap;html=1;" vertex="1" parent="1">
          <mxGeometry x="985" y="130" width="120" height="60" as="geometry" />
        </mxCell>
        <mxCell id="jOU-Sw_w10BAUPFyjZc6-68" style="edgeStyle=orthogonalEdgeStyle;rounded=0;orthogonalLoop=1;jettySize=auto;html=1;exitX=1;exitY=0.5;exitDx=0;exitDy=0;entryX=1;entryY=0.5;entryDx=0;entryDy=0;" edge="1" parent="1" source="jOU-Sw_w10BAUPFyjZc6-65" target="jOU-Sw_w10BAUPFyjZc6-14">
          <mxGeometry relative="1" as="geometry">
            <mxPoint x="1145" y="270" as="targetPoint" />
          </mxGeometry>
        </mxCell>
        <mxCell id="jOU-Sw_w10BAUPFyjZc6-65" value="消息节点" style="rounded=0;whiteSpace=wrap;html=1;" vertex="1" parent="1">
          <mxGeometry x="985" y="209" width="120" height="60" as="geometry" />
        </mxCell>
        <mxCell id="jOU-Sw_w10BAUPFyjZc6-69" style="edgeStyle=orthogonalEdgeStyle;rounded=0;orthogonalLoop=1;jettySize=auto;html=1;exitX=1;exitY=0.5;exitDx=0;exitDy=0;entryX=1;entryY=0.5;entryDx=0;entryDy=0;" edge="1" parent="1" source="jOU-Sw_w10BAUPFyjZc6-66" target="jOU-Sw_w10BAUPFyjZc6-14">
          <mxGeometry relative="1" as="geometry" />
        </mxCell>
        <mxCell id="jOU-Sw_w10BAUPFyjZc6-66" value="消息节点" style="rounded=0;whiteSpace=wrap;html=1;" vertex="1" parent="1">
          <mxGeometry x="985" y="290" width="120" height="60" as="geometry" />
        </mxCell>
      </root>
    </mxGraphModel>
  </diagram>
</mxfile>
